<?xml version="1.0" encoding="UTF-8" standalone="no"?>
<svg
   xmlns:dc="http://purl.org/dc/elements/1.1/"
   xmlns:cc="http://creativecommons.org/ns#"
   xmlns:rdf="http://www.w3.org/1999/02/22-rdf-syntax-ns#"
   xmlns:svg="http://www.w3.org/2000/svg"
   xmlns="http://www.w3.org/2000/svg"
   xmlns:sodipodi="http://sodipodi.sourceforge.net/DTD/sodipodi-0.dtd"
   xmlns:inkscape="http://www.inkscape.org/namespaces/inkscape"
   width="51"
   height="52"
   viewBox="0 0 51 52"
   version="1.1"
   id="svg3822"
   sodipodi:docname="2a.svg"
   inkscape:version="0.92.4 (5da689c313, 2019-01-14)">
  <metadata
     id="metadata3828">
    <rdf:RDF>
      <cc:Work
         rdf:about="">
        <dc:format>image/svg+xml</dc:format>
        <dc:type
           rdf:resource="http://purl.org/dc/dcmitype/StillImage" />
        <dc:title></dc:title>
      </cc:Work>
    </rdf:RDF>
  </metadata>
  <defs
     id="defs3826" />
  <sodipodi:namedview
     pagecolor="#ffffff"
     bordercolor="#666666"
     borderopacity="1"
     objecttolerance="10"
     gridtolerance="10"
     guidetolerance="10"
     inkscape:pageopacity="0"
     inkscape:pageshadow="2"
     inkscape:window-width="1600"
     inkscape:window-height="837"
     id="namedview3824"
     showgrid="false"
     inkscape:zoom="4.5384615"
     inkscape:cx="-2.6923105"
     inkscape:cy="28.491873"
     inkscape:window-x="-8"
     inkscape:window-y="-8"
     inkscape:window-maximized="1"
     inkscape:current-layer="svg3822" />
  <g
     inkscape:groupmode="layer"
     id="layer1"
     inkscape:label="Layer 1" />
  <g
     transform="matrix(0.10796969,0,0,0.10796969,-0.3081142,0.2322633)"
     id="g3875">
    <g
       id="g3873">
      <path
         inkscape:connector-curvature="0"
         d="M 240.135,0.05 C 144.085,0.036 57.277,57.289 19.472,145.586 l -2.992,0.992 1.16,3.48 c -49.776,122.766 9.393,262.639 132.159,312.415 28.673,11.626 59.324,17.594 90.265,17.577 C 372.612,480.07 480.08,372.634 480.1,240.086 480.12,107.538 372.684,0.069 240.135,0.05 Z M 428.388,361.054 416.064,348.738 V 320.05 c 0.014,-1.238 -0.26,-2.462 -0.8,-3.576 l -31.2,-62.312 V 224.05 c 0,-2.674 -1.335,-5.172 -3.56,-6.656 l -24,-16 c -1.881,-1.256 -4.206,-1.657 -6.4,-1.104 l -29.392,7.344 -49.368,-21.184 -6.792,-47.584 18.824,-18.816 h 40.408 l 13.6,20.44 c 1.228,1.838 3.163,3.087 5.344,3.448 l 48,8 c 1.286,0.216 2.604,0.111 3.84,-0.304 l 44.208,-14.736 c 37.079,71.155 33.113,156.736 -10.388,224.156 z M 395.392,78.882 382.384,87.554 346.12,80.298 322.592,72.466 c -1.44,-0.489 -2.99,-0.551 -4.464,-0.176 l -29.744,7.432 -13.04,-4.344 9.664,-19.328 h 27.056 c 1.241,0.001 2.465,-0.286 3.576,-0.84 l 27.68,-13.84 c 19.062,9.95 36.598,22.582 52.072,37.512 z M 152.44,33.914 l 19.2,12.8 c 0.944,0.628 2.01,1.048 3.128,1.232 l 38.768,6.464 -3.784,11.32 -20.2,6.744 c -1.809,0.602 -3.344,1.83 -4.328,3.464 l -22.976,38.288 -36.904,22.144 -54.4,7.768 c -3.943,0.557 -6.875,3.93 -6.88,7.912 v 24 c 0,2.122 0.844,4.156 2.344,5.656 l 13.656,13.656 v 13.744 L 46.784,186.914 34.712,150.698 C 57.68,98.218 99.777,56.458 152.44,33.914 Z m -22.776,262.296 -36.16,-7.24 -13.44,-26.808 v -18.8 l 29.808,-29.808 11.032,22.072 c 1.355,2.712 4.128,4.425 7.16,4.424 h 51.472 l 21.672,36.12 c 1.446,2.407 4.048,3.879 6.856,3.88 h 22.24 l -5.6,28.056 -30.288,30.288 c -1.503,1.499 -2.349,3.533 -2.352,5.656 v 20 l -28.8,21.6 c -2.014,1.511 -3.2,3.882 -3.2,6.4 v 28.896 l -9.952,-3.296 -14.048,-35.136 V 304.05 c 0.001,-3.802 -2.675,-7.08 -6.4,-7.84 z M 105.616,419.191 C 30.187,362.602 -1.712,264.826 25.832,174.642 l 6.648,19.936 c 0.56,1.687 1.666,3.14 3.144,4.128 l 39.88,26.584 -9.096,9.104 c -1.5,1.5 -2.344,3.534 -2.344,5.656 v 24 c -10e-4,1.241 0.286,2.465 0.84,3.576 l 16,32 c 1.108,2.21 3.175,3.784 5.6,4.264 l 33.6,6.712 v 73.448 c -0.001,1.016 0.192,2.024 0.568,2.968 l 16,40 c 0.876,2.185 2.67,3.874 4.904,4.616 l 24,8 c 0.802,0.272 1.642,0.412 2.488,0.416 4.418,0 8,-3.582 8,-8 v -36 l 28.8,-21.6 c 2.014,-1.511 3.2,-3.882 3.2,-6.4 v -20.688 l 29.656,-29.656 c 1.115,-1.117 1.875,-2.54 2.184,-4.088 l 8,-40 c 0.866,-4.333 -1.944,-8.547 -6.277,-9.413 -0.515,-0.103 -1.038,-0.155 -1.563,-0.155 H 212.592 L 190.92,227.93 c -1.446,-2.407 -4.048,-3.879 -6.856,-3.88 h -51.056 l -13.744,-27.576 c -1.151,-2.302 -3.339,-3.91 -5.88,-4.32 -2.54,-0.439 -5.133,0.399 -6.936,2.24 L 96.064,204.738 V 192.05 c 0,-2.122 -0.844,-4.156 -2.344,-5.656 L 80.064,172.738 V 158.986 L 129.2,151.97 c 1.055,-0.153 2.07,-0.515 2.984,-1.064 l 40,-24 c 1.122,-0.674 2.062,-1.614 2.736,-2.736 l 22.48,-37.464 21.192,-7.072 c 2.393,-0.785 4.271,-2.662 5.056,-5.056 l 8,-24 c 1.386,-4.195 -0.891,-8.72 -5.086,-10.106 -0.387,-0.128 -0.784,-0.226 -1.186,-0.294 l -46.304,-7.72 -8.136,-5.424 c 50.343,-16.386 104.869,-14.358 153.856,5.72 l -14.616,7.296 h -30.112 c -3.047,-0.017 -5.838,1.699 -7.2,4.424 l -16,32 c -1.971,3.954 -0.364,8.758 3.59,10.729 0.337,0.168 0.685,0.312 1.042,0.431 l 24,8 c 1.44,0.489 2.99,0.551 4.464,0.176 l 29.744,-7.432 21.792,7.256 c 0.312,0.112 0.633,0.198 0.96,0.256 l 40,8 c 2.08,0.424 4.244,-0.002 6.008,-1.184 l 18.208,-12.144 c 8.961,9.981 17.014,20.741 24.064,32.152 l -39.36,13.12 -42.616,-7.104 -14.08,-21.12 c -1.476,-2.213 -3.956,-3.547 -6.616,-3.56 h -48 c -2.122,0 -4.156,0.844 -5.656,2.344 l -24,24 c -1.782,1.781 -2.621,4.298 -2.264,6.792 l 8,56 c 0.403,2.769 2.223,5.126 4.8,6.216 l 56,24 c 1.604,0.695 3.394,0.838 5.088,0.408 l 28.568,-7.144 17.464,11.664 v 27.72 c -0.014,1.238 0.26,2.462 0.8,3.576 l 31.2,62.312 v 30.112 c 0,2.122 0.844,4.156 2.344,5.656 l 16.736,16.744 c -74.223,98.933 -214.595,118.965 -313.528,44.741 z"
         id="path3871" />
    </g>
  </g>
  <g
     transform="translate(-209.20098,-223.57314)"
     id="g3877" />
  <g
     transform="translate(-209.20098,-223.57314)"
     id="g3879" />
  <g
     transform="translate(-209.20098,-223.57314)"
     id="g3881" />
  <g
     transform="translate(-209.20098,-223.57314)"
     id="g3883" />
  <g
     transform="translate(-209.20098,-223.57314)"
     id="g3885" />
  <g
     transform="translate(-209.20098,-223.57314)"
     id="g3887" />
  <g
     transform="translate(-209.20098,-223.57314)"
     id="g3889" />
  <g
     transform="translate(-209.20098,-223.57314)"
     id="g3891" />
  <g
     transform="translate(-209.20098,-223.57314)"
     id="g3893" />
  <g
     transform="translate(-209.20098,-223.57314)"
     id="g3895" />
  <g
     transform="translate(-209.20098,-223.57314)"
     id="g3897" />
  <g
     transform="translate(-209.20098,-223.57314)"
     id="g3899" />
  <g
     transform="translate(-209.20098,-223.57314)"
     id="g3901" />
  <g
     transform="translate(-209.20098,-223.57314)"
     id="g3903" />
  <g
     transform="translate(-209.20098,-223.57314)"
     id="g3905" />
</svg>
